<svg xmlns="http://www.w3.org/2000/svg" xmlns:xlink="http://www.w3.org/1999/xlink" viewBox="0 0 32.98 32.98"><defs><style>.cls-1{isolation:isolate;}.cls-2{fill:url(#linear-gradient);}.cls-3{fill:url(#linear-gradient-2);}.Graphic-Style-4{fill:#a7a9ac;opacity:0.8;mix-blend-mode:multiply;}.cls-4{fill:#fff;}</style><linearGradient id="linear-gradient" y1="16.49" x2="32.98" y2="16.49" gradientUnits="userSpaceOnUse"><stop offset="0" stop-color="#8dc63f"/><stop offset="1" stop-color="#76b83f"/></linearGradient><linearGradient id="linear-gradient-2" x1="2.75" y1="16.49" x2="30.23" y2="16.49" gradientUnits="userSpaceOnUse"><stop offset="0" stop-color="#76b83f"/><stop offset="1" stop-color="#8dc63f"/></linearGradient></defs><title>audio-pause</title><g class="cls-1"><g id="Layer_2" data-name="Layer 2"><g id="Layer_1-2" data-name="Layer 1"><circle class="cls-2" cx="16.49" cy="16.49" r="16.49"/><circle class="cls-3" cx="16.49" cy="16.49" r="13.74"/><path class="Graphic-Style-4" d="M21.28,24.61a2.08,2.08,0,0,1-2.08-2.08V12.12a2.08,2.08,0,1,1,4.16,0V22.53A2.08,2.08,0,0,1,21.28,24.61Z"/><path class="Graphic-Style-4" d="M13.37,24.61a2.08,2.08,0,0,1-2.08-2.08V12.12a2.08,2.08,0,0,1,4.16,0V22.53A2.08,2.08,0,0,1,13.37,24.61Z"/><path class="cls-4" d="M20.45,23.78a2.08,2.08,0,0,1-2.08-2.08V11.29a2.08,2.08,0,1,1,4.16,0V21.7A2.08,2.08,0,0,1,20.45,23.78Z"/><path class="cls-4" d="M12.54,23.78a2.09,2.09,0,0,1-2.09-2.08V11.29a2.09,2.09,0,1,1,4.17,0V21.7A2.08,2.08,0,0,1,12.54,23.78Z"/></g></g></g></svg>