<?xml version="1.0" standalone="no"?>
<!DOCTYPE svg PUBLIC "-//W3C//DTD SVG 20010904//EN"
 "http://www.w3.org/TR/2001/REC-SVG-20010904/DTD/svg10.dtd">
<svg version="1.0" xmlns="http://www.w3.org/2000/svg"
 width="512.000000pt" height="512.000000pt" viewBox="0 0 512.000000 512.000000"
 preserveAspectRatio="xMidYMid meet">
<metadata>
Created by potrace 1.15, written by Peter Selinger 2001-2017
</metadata>
<g transform="translate(0.000000,512.000000) scale(0.100000,-0.100000)"
fill="#000000" stroke="none">
<path d="M2305 4899 c-38 -5 -88 -7 -110 -4 -22 2 -56 0 -75 -5 -31 -8 -28 -9
20 -5 48 4 45 2 -30 -14 -208 -45 -424 -118 -572 -192 -32 -16 -58 -27 -58
-24 0 2 26 18 58 34 31 17 54 30 49 31 -4 0 -44 -18 -88 -40 -50 -26 -77 -45
-73 -52 4 -7 3 -8 -5 -4 -14 9 -153 -72 -146 -84 3 -5 0 -12 -6 -16 -8 -5 -9
-3 -4 6 5 8 3 11 -6 8 -8 -3 -14 -10 -14 -15 0 -6 -4 -15 -9 -20 -5 -5 -6 -3
-2 5 11 18 -9 15 -25 -5 -12 -14 -12 -16 0 -8 9 5 12 4 7 -3 -4 -6 -12 -9 -19
-6 -7 2 -28 -10 -47 -27 -19 -17 -26 -25 -15 -18 18 13 19 13 6 -3 -7 -10 -17
-15 -22 -12 -30 18 -435 -387 -422 -422 2 -6 -4 -17 -14 -25 -17 -13 -17 -13
-3 6 14 18 14 19 -2 7 -9 -8 -15 -19 -12 -26 3 -7 -3 -19 -13 -27 -17 -13 -17
-13 -3 6 14 19 14 19 -2 6 -10 -7 -15 -17 -13 -22 5 -8 -62 -119 -72 -119 -2
0 -1 5 3 12 4 7 3 8 -5 4 -6 -4 -9 -11 -6 -16 9 -14 -55 -121 -67 -113 -7 3
-8 1 -4 -5 4 -6 -11 -46 -32 -89 -99 -196 -180 -454 -219 -688 -14 -85 -18
-166 -18 -355 0 -189 4 -270 18 -355 39 -234 120 -492 219 -688 21 -43 36 -83
32 -89 -4 -6 -3 -8 4 -5 12 8 76 -99 67 -113 -3 -5 0 -12 6 -16 8 -4 9 -3 5 4
-4 7 -5 12 -3 12 10 0 77 -111 72 -119 -2 -5 3 -15 13 -22 16 -13 16 -13 2 6
-14 19 -14 19 3 6 10 -8 16 -20 13 -27 -3 -7 3 -18 12 -26 16 -12 16 -11 2 7
-14 19 -14 19 3 6 10 -8 16 -19 14 -25 -13 -35 392 -440 422 -422 5 3 15 -2
22 -12 13 -16 12 -16 -6 -3 -11 7 -4 -1 15 -18 19 -17 40 -29 47 -27 7 3 15 0
19 -6 5 -7 2 -8 -7 -3 -12 8 -12 6 0 -8 16 -20 36 -23 25 -4 -4 7 -3 9 2 4 5
-5 9 -14 9 -19 0 -6 6 -13 14 -16 9 -3 11 0 6 8 -5 9 -4 11 4 6 6 -4 9 -11 6
-16 -7 -12 83 -62 97 -54 7 4 8 3 4 -4 -8 -14 50 -46 66 -36 7 4 8 3 4 -4 -4
-7 20 -25 63 -47 39 -19 74 -35 78 -35 5 1 -18 14 -49 31 -32 16 -58 32 -58
34 0 3 26 -8 58 -24 156 -79 405 -160 597 -195 262 -49 596 -48 850 0 203 39
441 117 598 195 31 16 57 27 57 24 0 -2 -26 -18 -57 -34 -32 -17 -55 -30 -50
-31 4 0 44 18 88 40 50 26 77 45 73 52 -4 7 -3 8 5 4 14 -9 153 72 146 84 -3
5 0 12 6 16 8 5 9 3 4 -6 -5 -8 -3 -11 6 -8 8 3 14 10 14 16 0 5 4 14 9 19 5
5 6 3 2 -4 -11 -19 9 -16 25 4 12 14 12 16 0 8 -9 -5 -12 -4 -7 3 4 6 12 9 19
6 7 -2 28 10 47 27 19 17 26 25 15 18 -18 -13 -19 -13 -6 3 7 10 17 15 22 12
30 -18 435 387 422 422 -2 6 4 17 14 25 17 13 17 13 3 -6 -14 -18 -14 -19 2
-7 9 8 15 19 12 26 -3 7 3 19 13 27 17 13 17 13 3 -6 -14 -19 -14 -19 2 -6 10
7 15 17 13 22 -5 8 62 119 72 119 2 0 1 -5 -3 -12 -4 -7 -3 -8 5 -4 6 4 9 11
6 16 -9 14 55 121 67 113 6 -3 8 -1 5 4 -4 6 15 58 43 115 99 207 166 424 207
663 26 157 26 553 0 710 -41 239 -108 456 -207 663 -28 57 -47 109 -43 115 3
5 1 7 -5 4 -12 -8 -76 99 -67 113 3 5 0 12 -6 16 -8 4 -9 3 -5 -4 4 -7 5 -12
3 -12 -10 0 -77 111 -72 119 2 5 -3 15 -13 22 -16 13 -16 13 -2 -6 14 -19 14
-19 -3 -6 -10 8 -16 20 -13 27 3 7 -3 18 -12 26 -16 12 -16 11 -2 -7 14 -19
14 -19 -3 -6 -10 8 -16 19 -14 25 13 35 -392 440 -422 422 -5 -3 -15 2 -22 12
-13 16 -12 16 6 3 11 -7 4 1 -15 18 -19 17 -40 29 -47 27 -7 -3 -15 0 -19 6
-5 7 -2 8 7 3 12 -8 12 -6 0 8 -16 20 -36 23 -25 5 4 -8 3 -10 -2 -5 -5 5 -9
14 -9 19 0 6 -6 13 -14 16 -9 3 -11 0 -6 -8 5 -9 4 -11 -4 -6 -6 4 -9 11 -6
16 7 12 -132 93 -146 84 -8 -4 -9 -3 -5 4 4 7 -23 26 -73 52 -44 22 -84 40
-88 40 -5 -1 18 -14 50 -31 31 -16 57 -32 57 -34 0 -3 -23 6 -50 20 -217 110
-519 197 -782 225 -114 12 -403 11 -503 -1z m575 -324 c880 -147 1543 -811
1697 -1700 12 -74 17 -157 17 -315 0 -236 -11 -327 -65 -529 -185 -696 -744
-1256 -1440 -1440 -322 -86 -599 -92 -949 -21 -101 21 -295 78 -288 86 3 2 31
-5 63 -16 32 -11 63 -20 69 -19 10 0 -94 39 -146 54 -18 5 -20 4 -8 -5 21 -16
-26 -3 -60 17 -24 14 -20 13 25 -2 11 -3 -36 21 -104 54 -68 33 -128 58 -134
54 -5 -3 -7 -1 -4 5 8 12 -79 66 -92 57 -5 -3 -13 0 -17 6 -5 8 -3 9 6 4 9 -6
11 -4 6 4 -5 7 -14 10 -22 7 -7 -3 -16 0 -20 6 -5 7 -2 8 6 3 9 -6 11 -4 6 4
-5 7 -14 10 -22 7 -7 -3 -16 0 -20 6 -5 7 -2 8 7 3 12 -8 12 -6 0 8 -16 20
-36 23 -25 5 5 -9 2 -9 -9 1 -20 16 -23 26 -4 15 8 -5 8 -2 -2 9 -16 20 -36
23 -25 5 5 -9 2 -9 -9 1 -20 16 -23 26 -4 15 8 -5 8 -2 -2 9 -14 18 -36 24
-26 7 12 -19 -2 -10 -26 17 l-24 28 25 -20 25 -20 -24 28 c-25 27 -48 37 -35
15 16 -29 -183 174 -243 247 -88 109 -185 256 -178 273 2 7 0 10 -5 7 -15 -9
-123 221 -170 362 -21 65 -52 177 -67 248 -26 124 -28 143 -28 395 0 252 2
271 28 395 15 72 46 183 67 248 47 141 155 371 170 362 5 -3 7 0 5 7 -7 17 90
164 178 273 60 73 259 276 243 248 -13 -23 10 -13 35 14 22 25 22 26 2 9 -32
-27 -29 -15 4 15 14 13 23 18 19 12 -11 -19 9 -16 25 4 12 15 12 16 -1 8 -13
-8 -13 -7 -1 8 15 18 26 23 16 7 -10 -17 12 -11 26 7 12 15 12 16 -1 8 -13 -8
-13 -7 -1 8 15 18 26 23 16 7 -10 -17 12 -11 26 7 12 14 12 16 0 8 -9 -5 -12
-4 -7 3 4 6 13 9 20 6 8 -3 17 0 22 7 5 8 3 10 -6 4 -8 -5 -11 -4 -6 3 4 6 13
9 20 6 8 -3 17 0 22 7 5 8 3 10 -6 4 -9 -5 -11 -4 -6 4 4 6 12 9 17 6 13 -9
100 45 92 57 -3 6 -1 8 4 5 6 -4 66 21 134 54 68 33 115 57 104 54 -45 -15
-49 -16 -25 -2 34 20 81 33 60 17 -12 -9 -10 -10 8 -5 52 15 156 54 146 54 -6
1 -37 -8 -69 -19 -32 -11 -60 -18 -63 -16 -6 6 171 61 260 81 190 42 319 55
498 50 96 -2 218 -11 270 -20z"/>
<path d="M2082 3600 c-222 -59 -405 -229 -484 -450 -22 -63 -23 -75 -26 -488
-3 -470 -2 -482 63 -621 84 -177 229 -301 425 -363 74 -23 80 -23 540 -23
l465 0 80 28 c214 76 373 236 441 443 28 85 29 97 29 269 0 176 -1 181 -27
230 -56 106 -139 156 -269 163 l-86 4 -5 137 c-5 112 -10 150 -32 216 -70 208
-235 373 -446 446 -60 21 -85 23 -330 26 -237 2 -273 1 -338 -17z m518 -291
c126 -20 235 -102 288 -217 23 -50 27 -73 30 -179 l4 -123 -526 0 -526 0 0 85
c0 152 33 246 115 328 52 53 132 95 202 107 71 12 338 11 413 -1z m708 -952
c-3 -115 -5 -127 -35 -189 -39 -78 -102 -139 -181 -176 l-57 -27 -445 0 -445
0 -61 32 c-78 41 -156 125 -185 201 -16 42 -23 86 -27 170 l-5 112 723 0 722
0 -4 -123z"/>
</g>
</svg>
