<svg xmlns="http://www.w3.org/2000/svg" viewBox="0 0 57.7 57.55"><defs><style>.cls-1{fill:#e0ac33}.cls-2{fill:#1b1b1b}</style></defs><g id="Layer_2" data-name="Layer 2"><g id="Layer_1-2" data-name="Layer 1"><path d="M43.35,14.24a4.38,4.38,0,1,0,0-6.19A4.38,4.38,0,0,0,43.35,14.24Z" class="cls-1"/><path d="M27.05,24.36,7.93,43.47a4.38,4.38,0,0,0,6.19,6.19l8.08-8.08a1.71,1.71,0,0,1,2.23,2.58l-5.91,5.92a4.37,4.37,0,0,0,6.18,6.19L41.19,39.78a1.7,1.7,0,0,1,2.41,2.41l-1,1a4.38,4.38,0,1,0,6.19,6.19l6.91-6.91a4.38,4.38,0,0,0-6.19-6.19l-1,1a1.7,1.7,0,1,1-2.41-2.4L56.41,24.56a4.37,4.37,0,0,0-6.18-6.19l-20.9,20.9a1.73,1.73,0,0,1-2.43,0A1.7,1.7,0,0,1,26.74,37L40,23.74a4.37,4.37,0,1,0-6.19-6.18l-2.51,2.51a1.7,1.7,0,0,1-2.06-.26,1.72,1.72,0,0,1,0-2.42l9.92-9.92A4.38,4.38,0,0,0,33,1.28L16.51,17.77a1.7,1.7,0,0,1-2.41-2.41l4.63-4.63a4.37,4.37,0,0,0-6.19-6.18L2,15.07A4.37,4.37,0,0,0,8.2,21.26l1-1a1.7,1.7,0,1,1,2.4,2.41L1.28,33a4.38,4.38,0,0,0,6.19,6.19l16.9-16.9a1.73,1.73,0,0,1,2.42,0A1.7,1.7,0,0,1,27.05,24.36Z" class="cls-2"/></g></g></svg>